<?xml version="1.0" encoding="UTF-8" standalone="no"?>
<svg
   version="1.0"
   width="128"
   height="128"
   viewBox="0 0 128 128"
   preserveAspectRatio="xMidYMid"
   id="svg3479"
   sodipodi:docname="icon.svg"
   inkscape:version="1.2.2 (b0a8486541, 2022-12-01)"
   inkscape:export-filename="icon.png"
   inkscape:export-xdpi="96"
   inkscape:export-ydpi="96"
   xmlns:inkscape="http://www.inkscape.org/namespaces/inkscape"
   xmlns:sodipodi="http://sodipodi.sourceforge.net/DTD/sodipodi-0.dtd"
   xmlns="http://www.w3.org/2000/svg"
   xmlns:svg="http://www.w3.org/2000/svg">
  <defs
     id="defs3483" />
  <sodipodi:namedview
     id="namedview3481"
     pagecolor="#ffffff"
     bordercolor="#000000"
     borderopacity="0.25"
     inkscape:showpageshadow="2"
     inkscape:pageopacity="0.0"
     inkscape:pagecheckerboard="true"
     inkscape:deskcolor="#d1d1d1"
     showgrid="false"
     inkscape:zoom="4"
     inkscape:cx="-0.125"
     inkscape:cy="39.5"
     inkscape:window-width="1920"
     inkscape:window-height="1003"
     inkscape:window-x="0"
     inkscape:window-y="0"
     inkscape:window-maximized="1"
     inkscape:current-layer="svg3479" />
  <g
     id="layer1"
     inkscape:label="bg"
     style="fill:#ffffff;fill-opacity:1"
     transform="matrix(0.5,0,0,0.5,-0.04910925,1.6651491)">
    <path
       d="m 104.93059,244.22515 c -10.165747,-1.21785 -23.526487,-10.95321 -29.463217,-8.68031 -22.24324,8.51592 -46.15474,14.61633 -69.1464293,9.11534 -13.02622,-7.24614 10.2177793,-12.83119 15.3464293,-17.71534 6.8822,-5.79118 17.43606,-12.65692 10.9856,-23.23925 -6.78257,-10.27433 -9.79723,-21.6306 -11.44847,-33.22892 -2.13943,-15.02726 -1.90743,-30.87623 2.2285,-45.48183 1.21444,-11.49591 6.79834,-22.57484 3.93437,-34.325001 -0.78559,-13.35391 -2.76141,-27.15536 -0.61677,-40.47812 2.74232,-17.03572 10.65432,-46.1953996 16.99177,-48.8968795 9.53301,2.4527799 40.98926,18.8077195 55.53125,26.9249995 11.689307,-4.85371 44.804157,-8.88091 63.200007,-0.48125 7.10846,-3.5044 38.20103,-20.5061196 55.96875,-24.5437496 21.18763,29.5973096 20.53081,61.6060896 19.9961,94.4929686 -0.94077,11.881982 4.4766,23.410432 4.6038,35.359572 0.63665,20.68499 -0.8976,47.28222 -9.97284,63.001 -9.07523,15.71877 -22.6399,23.75964 -29.53217,29.5964 -27.17856,19.79263 -64.8632,22.62281 -98.60668,18.58037 z"
       id="path3459"
       sodipodi:nodetypes="sscccaccacccccczcs"
       inkscape:label="path3459"
       style="display:inline;fill:#ffffff;fill-opacity:1;stroke-width:0.25" />
  </g>
  <g
     fill="#ae1c3e"
     id="g3461"
     style="display:inline"
     transform="matrix(0.125,0,0,0.125,-1.2404222,1.3125691)">
    <path
       d="M 429.25283,979.72123 C 388.58988,974.84984 335.14692,935.90839 311.4,945 222.42704,979.06366 126.78105,1003.4653 34.814258,981.46133 -17.290612,952.47677 75.685376,930.13658 96.2,910.6 123.72878,887.43527 165.94423,859.97232 140.14238,817.64297 113.0121,776.54566 100.95349,731.12059 94.348505,684.72732 85.790813,624.61825 86.718794,561.22239 103.2625,502.8 108.12029,456.81635 130.45589,412.50063 119,365.5 115.85765,312.08433 107.95436,256.87855 116.5329,203.5875 127.50221,135.44462 159.15018,18.805918 184.5,8 222.63202,17.811086 348.45702,83.230874 406.625,115.7 453.38221,96.28515 585.84159,80.176359 659.425,113.775 687.85883,99.757373 812.2291,31.750515 883.3,15.6 c 84.75052,118.38924 82.12325,246.42436 79.98438,377.97188 -3.76306,47.5279 17.90642,93.64169 18.41523,141.43828 2.54657,82.73994 -3.59041,189.12888 -39.89136,252.00397 -36.30095,62.8751 -90.5596,95.03859 -118.12871,118.38561 C 714.9653,984.57026 564.22674,995.891 429.25283,979.72123 Z M 634.03281,937.20156 C 738.63162,914.40544 849.6249,850.69192 902.23204,772.80404 954.83918,694.91616 955.22204,552.74752 922.8,470.2 886.69807,421.92322 845.9285,503.25797 799.275,491.1625 778.40073,451.16921 787.9339,390.9059 753.94688,351.73125 730.72388,333.14636 694.60838,381.08906 675,402 651.03278,423.62811 618.27321,423.31475 593.20332,403.11541 556.54774,378.84317 518.48929,308.90638 506.6125,301.8 467.14975,278.18777 417.0012,422.02277 379,445.2 347.51789,435.00073 316.13891,399.59444 293.2125,390.7375 277.59504,422.47841 268.65135,509.09683 217,476 109.44556,440.94812 135.70188,636.20062 144.9,687.775 c 6.88827,46.64852 29.44388,89.68865 50.3,131.05625 26.22145,41.75614 -52.04564,96.68553 -82.14257,124.24478 -29.308662,29.09579 83.93913,11.02304 119.09062,-7.59478 44.31718,-23.47238 88.97238,-43.57365 136.44116,-18.46877 78.442,41.48572 176.12397,36.07016 265.4436,20.18908 z M 186.4,402 C 443.56992,125.11145 709.49727,252.20559 874.40156,371.91719 892.14964,386.00736 912.96754,402.50182 888.125,372.0375 849.28566,307.67218 800.46119,246.33937 733,210.2 630.05449,154.34323 501.55005,137.33389 397.1625,184 317.09423,216.25051 249.77229,276.1874 204.7,349.8 c -8.36438,9.14385 -46.30266,81.47 -18.3,52.2 z M 908.2,302 c -9.74086,-60.0409 -15.8199,-121.64067 -37,-179.2 -42.50967,3.2415 -83.00387,20.21343 -120.30469,40.02969 C 810.78958,199.8115 867.8333,246.26382 907.1,306 Z M 175,301.9 C 213.16155,246.44818 264.04943,199.5736 323.2,167.1 280.11719,137.38433 267.53567,134.05195 223,122.4 187.57338,150.59491 164.94853,253.90394 175,301.9 Z"
       id="path5617"
       sodipodi:nodetypes="sscccaccacccccczcsczcccccsccccccssccccccccccccccccc"
       inkscape:label="path3459"
       style="display:inline" />
  </g>
  <g
     fill="#290225"
     id="g3457"
     transform="matrix(0.125,0,0,0.125,-1.2404222,1.3125691)">
    <path
       d="M 523.89756,864.80123 C 487.19342,864.1306 450.28522,852.26521 422.31631,827.99814 403.99497,812.17597 386.3883,792.62565 382.0027,768.0033 c -6.2748,-10.75998 -2.25189,-25.10976 10.22706,-28.99153 10.53946,-3.50982 21.7721,-1.32749 32.5553,-0.48554 15.44431,10.52796 18.3642,31.72315 32.17712,43.19145 72.28607,63.8139 141.24031,32.30483 183.91029,-33.06162 5.23999,-12.4268 20.85981,-13.8226 32.42347,-10.97094 13.38499,2.36866 22.38351,16.43701 18.74151,29.56063 -4.07066,15.85353 -13.6748,29.73373 -22.84155,43.0151 -21.2275,22.61414 -48.23242,40.41912 -78.5021,48.09542 -21.68598,5.67189 -44.42667,7.76436 -66.79624,6.44496 z"
       id="path3451"
       sodipodi:nodetypes="cccccccccccc" />
    <path
       d="m 437.63785,591.11841 c -19.24093,-55.25607 -64.6646,-91.56451 -106.95892,-42.90313 -16.17392,18.60877 -18.99634,59.54456 -51.05341,53.52092 -9.82422,-1.84601 -13.75801,-17.01306 -13.07888,-26.98611 1.98258,-29.11439 23.58004,-57.70687 48.50857,-72.87745 26.11412,-15.89208 63.27587,-22.59306 91.15614,-10.05528 35.39748,15.91827 83.02104,59.59116 67.24744,95.05334 -4.88667,10.98619 -31.86689,15.60294 -35.82094,4.24771 z"
       id="path3453"
       sodipodi:nodetypes="sssaaaas" />
    <path
       d="m 631.10457,589.84476 c 19.24093,-55.25607 64.6646,-91.56451 106.95892,-42.90313 16.17392,18.60877 18.99634,59.54456 51.05341,53.52092 9.82422,-1.84601 13.75801,-17.01306 13.07888,-26.98611 -1.98258,-29.11439 -23.58004,-57.70687 -48.50857,-72.87745 -26.11412,-15.89208 -63.27587,-22.59306 -91.15614,-10.05528 -35.39748,15.91827 -83.02104,59.59116 -67.24744,95.05334 4.88667,10.98619 31.86689,15.60294 35.82094,4.24771 z"
       id="path5567"
       sodipodi:nodetypes="sssaaaas" />
  </g>
  <g
     fill="#ed91c0"
     id="g3467"
     style="display:inline"
     transform="matrix(0.125,0,0,0.125,-1.2404222,1.3125691)">
    <path
       d="m 330.5,681.3 c 0,29.4 -23.8,53.2 -53.2,53.2 -29.4,0 -53.2,-23.8 -53.2,-53.2 0,-29.3 23.8,-53.2 53.2,-53.2 29.4,0 53.2,23.9 53.2,53.2 z m -65.5,52"
       id="path3463" />
    <path
       d="m 852.8,678.5 c 0,29.4 -23.8,53.2 -53.2,53.2 -29.4,0 -53.3,-23.8 -53.3,-53.2 0,-29.4 23.9,-53.3 53.3,-53.3 29.4,0 53.2,23.9 53.2,53.3 z M 785,729.7"
       id="path3465"
       style="display:inline" />
  </g>
</svg>
